<?xml version="1.0" encoding="utf-8"?>
<!-- Generator: Adobe Illustrator 18.1.1, SVG Export Plug-In . SVG Version: 6.00 Build 0)  -->
<!-- <div>Icon made by <a href="http://www.freepik.com" title="Freepik">Freepik</a> from <a href="http://www.flaticon.com" title="Flaticon">www.flaticon.com</a> is licensed under <a href="http://creativecommons.org/licenses/by/3.0/" title="Creative Commons BY 3.0">CC BY 3.0</a></div> -->
<!DOCTYPE svg PUBLIC "-//W3C//DTD SVG 1.1//EN" "http://www.w3.org/Graphics/SVG/1.1/DTD/svg11.dtd">
<svg version="1.1" id="Layer_1" xmlns="http://www.w3.org/2000/svg" xmlns:xlink="http://www.w3.org/1999/xlink" x="0px" y="0px"
	 viewBox="0 0 300 300" enable-background="new 0 0 300 300" xml:space="preserve">
<g>
	<path id="face" fill="#B0B292" d="M92.8,123.3L92.8,123.3c9.7,33,33,57.2,57.2,58.2c22.3-1,48.5-25.2,57.2-58.2c3.9,0,7.8-4.8,9.7-11.6
		c1-6.8-1-13.6-5.8-13.6h-1c-1-54.3-27.2-73.7-59.2-74.7c-33.9,0-64,23.3-62.1,74.7h-1c-3.9,1-6.8,6.8-5.8,13.6
		C84.1,118.5,88.9,124.3,92.8,123.3z"/>
	<path id="body" fill="#B0B292" d="M135.5,250.4l-30.1-59.2C52,198,14.2,221.3,14.2,276.6h271.5c0-55.3-37.8-77.6-91.2-85.3l-30.1,59.2"/>
	<g id="eyes-tie-mouth-group" fill="#B0B292">
		<path id="tie" d="M164.5,250.4l-4.8-38.8l7.8-5.8H149h-16.5l7.8,5.8l-4.8,38.8H164.5"/>
		<path id="mouth" d="M115.1,136.9H183C171.3,162.1,144.2,185.4,115.1,136.9z"/>
		<ellipse id="left-eye" cx="124.8" cy="80.7" rx="7.8" ry="7.8"/>
		<ellipse id="left-eye_1_" cx="167.5" cy="80.7" rx="7.8" ry="7.8"/>
	</g>
</g>
</svg>
