<?xml version="1.0" encoding="utf-8"?>
<!-- Generator: Adobe Illustrator 18.1.1, SVG Export Plug-In . SVG Version: 6.00 Build 0)  -->
<!-- <div>Icon made by <a href="http://www.freepik.com" title="Freepik">Freepik</a> from <a href="http://www.flaticon.com" title="Flaticon">www.flaticon.com</a> is licensed under <a href="http://creativecommons.org/licenses/by/3.0/" title="Creative Commons BY 3.0">CC BY 3.0</a></div> -->
<!DOCTYPE svg PUBLIC "-//W3C//DTD SVG 1.1//EN" "http://www.w3.org/Graphics/SVG/1.1/DTD/svg11.dtd">
<svg version="1.1" id="Layer" xmlns="http://www.w3.org/2000/svg" xmlns:xlink="http://www.w3.org/1999/xlink" x="0px" y="0px"
	 viewBox="0 0 300 300" enable-background="new 0 0 300 300" xml:space="preserve">
<g>
	<path id="base" fill="#f3efe0" d="M250.1,165l44.8,92c1.8,3.7-0.1,6.8-4.3,6.8H9.5c-4.2,0-6.1-3.1-4.3-6.8L50,165
		c0.7-1.5,2.6-2.7,4.3-2.7h38.4c1.2,0,2.8,0.7,3.6,1.6c2.6,3,5.3,6,7.9,8.9c2.5,2.8,5,5.6,7.5,8.4H66c-1.6,0-3.5,1.2-4.3,2.7
		l-29.7,61h235.7l-29.7-61c-0.7-1.5-2.6-2.7-4.3-2.7H188c2.5-2.9,5-5.7,7.6-8.4c2.7-2.9,5.3-5.9,7.9-8.9c0.8-0.9,2.4-1.6,3.6-1.6
		h38.5C247.5,162.4,249.4,163.6,250.1,165z"/>
	<path id="pin" fill="#f3efe0" d="M216,102.1c0,50.3-41.9,59.7-61.6,108.1c-1.6,3.9-7.1,3.9-8.7,0c-17.8-43.6-53.6-55.5-60.4-94.4
		c-6.7-38.2,19.7-75.7,58.4-79.3C182.9,32.8,216,63.6,216,102.1z M184.9,102.1c0-19.2-15.6-34.8-34.8-34.8s-34.8,15.6-34.8,34.8
		s15.6,34.8,34.8,34.8C169.3,136.9,184.9,121.3,184.9,102.1z"/>
</g>
</svg>
