<?xml version="1.0" encoding="utf-8"?>
<!-- Generator: Adobe Illustrator 18.1.1, SVG Export Plug-In . SVG Version: 6.00 Build 0)  -->
<!DOCTYPE svg PUBLIC "-//W3C//DTD SVG 1.1//EN" "http://www.w3.org/Graphics/SVG/1.1/DTD/svg11.dtd">
<svg version="1.1" id="loader-1" xmlns="http://www.w3.org/2000/svg" xmlns:xlink="http://www.w3.org/1999/xlink" x="0px" y="0px"
   viewBox="0 0 300 300" enable-background="new 0 0 300 300" xml:space="preserve">
<g>
  <path id="circle" opacity="0.2" enable-background="new    " d="M150,38.7c-62.3,0-111.8,50.2-111.8,111.7
    C38.2,212.7,88.4,262,150,262s111.8-50.2,111.8-111.7S212.3,38.7,150,38.7z M150,237.4c-48,0-87-39-87-87s39-87,87-87s87,39,87,87
    C237,198.5,198,237.4,150,237.4z"/>
  <path id="inner-arch" d="M193.5,74.7L206.2,53C189.7,43.2,171,38,150,38l0,0v24.7l0,0C165.8,63.5,180.8,68,193.5,74.7z"/>
</g>
</svg>
